<?xml version="1.0" encoding="UTF-8" standalone="no"?>
<!DOCTYPE svg PUBLIC "-//W3C//DTD SVG 1.1//EN" "http://www.w3.org/Graphics/SVG/1.1/DTD/svg11.dtd">
<svg width="615.00" height="447.00" viewBox="0.00 0.00 615.00 447.00" xmlns="http://www.w3.org/2000/svg" xmlns:xlink="http://www.w3.org/1999/xlink">
<g stroke-linecap="round" transform="translate(115.00, 73.00)" id="ultimate-2-wireless">
<path d="M-37.93,-8.82 C-38.28,-12.41 -37.94,-15.92 -36.91,-19.37 C-35.39,-21.83 -18.82,-32.81 -10.04,-37.38 C-1.27,-41.96 7.54,-46.33 32.34,-50.36 C47.99,-52.74 63.53,-52.12 78.95,-48.50 C80.20,-48.00 81.29,-47.27 82.21,-46.29 C83.70,-44.68 85.94,-41.84 85.94,-41.84" fill="none" stroke="rgb(0, 0, 0)" stroke-width="7.49" stroke-opacity="1.00" stroke-linejoin="round"/>
<path d="M421.87,-8.83 C422.22,-12.40 421.89,-15.92 420.89,-19.38 C419.33,-21.83 402.80,-32.81 394.03,-37.39 C385.25,-41.96 376.40,-46.33 351.65,-50.36 C335.99,-52.73 320.45,-52.11 305.03,-48.50 C303.80,-48.00 302.73,-47.26 301.81,-46.30 C300.33,-44.69 298.08,-41.85 298.08,-41.85" fill="none" stroke="rgb(0, 0, 0)" stroke-width="7.49" stroke-opacity="1.00" stroke-linejoin="round"/>
<path d="M166.12,54.56 C166.11,50.95 164.82,47.88 162.27,45.34 C159.71,42.80 156.63,41.54 153.03,41.55 C149.43,41.56 146.35,42.84 143.81,45.39 C141.27,47.95 140.01,51.03 140.01,54.63 C140.02,58.23 141.30,61.31 143.86,63.85 C146.41,66.39 149.49,67.66 153.09,67.65 C156.69,67.65 159.77,66.37 162.31,63.81 C163.54,62.59 164.48,61.17 165.14,59.56 C165.80,57.96 166.12,56.29 166.12,54.56 Z" fill="none" stroke="rgb(0, 0, 0)" stroke-width="4.99" stroke-opacity="1.00" stroke-linejoin="round"/>
<path d="M195.15,54.55 C195.15,54.55 194.92,53.15 194.46,52.57 C193.99,51.98 193.40,51.61 192.67,51.45 C191.95,51.29 191.25,51.37 190.58,51.70 C189.91,52.02 189.42,52.52 189.10,53.19 C188.78,53.87 188.71,54.57 188.88,55.29 C189.06,56.01 189.44,56.60 190.02,57.06 C190.61,57.52 191.27,57.74 192.02,57.73 C192.89,57.72 193.63,57.40 194.24,56.78 C194.85,56.17 195.15,55.42 195.15,54.55 Z" fill="none" stroke="rgb(0, 0, 0)" stroke-width="3.74" stroke-opacity="1.00" stroke-linejoin="round"/>
<path d="M129.84,11.90 C129.84,8.30 128.57,5.22 126.02,2.67 C123.47,0.12 120.40,-1.15 116.79,-1.15 C113.19,-1.15 110.11,0.12 107.56,2.67 C105.01,5.22 103.74,8.30 103.74,11.90 C103.74,15.50 105.01,18.58 107.56,21.13 C110.11,23.68 113.19,24.95 116.79,24.95 C120.40,24.95 123.47,23.68 126.02,21.13 C128.57,18.58 129.84,15.50 129.84,11.90 Z" fill="none" stroke="rgb(0, 0, 0)" stroke-width="4.99" stroke-opacity="1.00" stroke-linejoin="round"/>
<path d="M206.38,11.90 C206.39,8.58 205.36,5.63 203.30,3.03 C201.24,0.44 198.59,-1.23 195.36,-1.98 C192.13,-2.72 189.02,-2.37 186.03,-0.93 C183.04,0.51 180.83,2.72 179.39,5.71 C177.95,8.69 177.61,11.80 178.35,15.04 C179.09,18.27 180.76,20.91 183.35,22.98 C185.95,25.04 188.91,26.06 192.22,26.05 C196.13,26.04 199.46,24.66 202.22,21.90 C204.98,19.14 206.37,15.80 206.38,11.90 Z" fill="none" stroke="rgb(0, 0, 0)" stroke-width="2.50" stroke-opacity="1.00" stroke-linejoin="round"/>
<path d="M211.34,11.90 C211.34,7.38 209.93,3.35 207.11,-0.18 C204.29,-3.71 200.67,-5.98 196.27,-6.98 C191.86,-7.99 187.62,-7.51 183.55,-5.54 C179.48,-3.58 176.46,-0.56 174.51,3.52 C172.55,7.59 172.08,11.83 173.09,16.24 C174.11,20.64 176.38,24.25 179.92,27.06 C183.46,29.88 187.49,31.28 192.01,31.27 C197.35,31.26 201.91,29.36 205.68,25.58 C209.45,21.80 211.34,17.24 211.34,11.90 Z" fill="none" stroke="rgb(0, 0, 0)" stroke-width="2.50" stroke-opacity="1.00" stroke-linejoin="round"/>
<path d="M190.36,7.96 C190.36,7.96 193.67,7.96 193.67,7.96 C193.76,7.97 193.83,8.00 193.90,8.07 C193.96,8.13 194.00,8.21 194.01,8.30 C194.01,8.30 194.01,11.56 194.01,11.56 C194.01,11.65 193.97,11.73 193.91,11.80 C193.84,11.87 193.76,11.90 193.67,11.90 C193.67,11.90 190.40,11.90 190.40,11.90 C190.31,11.90 190.23,11.87 190.16,11.80 C190.10,11.73 190.06,11.65 190.06,11.56 C190.06,11.56 190.06,8.30 190.06,8.30 C190.07,8.21 190.11,8.13 190.17,8.07 C190.24,8.00 190.40,7.96 190.40,7.96" fill="none" stroke="rgb(17, 17, 17)" stroke-width="2.50" stroke-opacity="1.00" stroke-linejoin="miter"/>
<path d="M182.48,7.96 C182.48,7.96 185.78,7.96 185.78,7.96 C185.87,7.97 185.94,8.01 186.00,8.07 C186.05,8.14 186.08,8.21 186.08,8.30 C186.08,8.30 186.08,11.56 186.08,11.56 C186.09,11.62 186.08,11.67 186.06,11.73 C186.03,11.78 185.99,11.82 185.94,11.85 C185.90,11.88 185.84,11.90 185.78,11.90 C185.78,11.90 182.48,11.90 182.48,11.90 C182.42,11.90 182.36,11.88 182.31,11.85 C182.27,11.82 182.23,11.78 182.20,11.73 C182.18,11.67 182.17,11.62 182.18,11.56 C182.18,11.56 182.18,8.30 182.18,8.30 C182.18,8.21 182.21,8.14 182.26,8.07 C182.32,8.01 182.48,7.96 182.48,7.96" fill="none" stroke="rgb(17, 17, 17)" stroke-width="2.50" stroke-opacity="1.00" stroke-linejoin="miter"/>
<path d="M198.20,7.96 C198.20,7.96 201.50,7.96 201.50,7.96 C201.59,7.97 201.67,8.00 201.73,8.07 C201.80,8.13 201.83,8.21 201.84,8.30 C201.84,8.30 201.84,11.56 201.84,11.56 C201.84,11.65 201.81,11.73 201.74,11.80 C201.68,11.87 201.60,11.90 201.50,11.90 C201.50,11.90 198.20,11.90 198.20,11.90 C198.14,11.90 198.09,11.88 198.04,11.85 C197.99,11.82 197.95,11.78 197.93,11.73 C197.90,11.67 197.89,11.62 197.90,11.56 C197.90,11.56 197.90,8.30 197.90,8.30 C197.90,8.21 197.93,8.14 197.99,8.07 C198.04,8.01 198.20,7.96 198.20,7.96" fill="none" stroke="rgb(17, 17, 17)" stroke-width="2.50" stroke-opacity="1.00" stroke-linejoin="miter"/>
<path d="M186.42,11.90 C186.42,11.90 189.73,11.90 189.73,11.90 C189.78,11.90 189.84,11.91 189.89,11.95 C189.94,11.98 189.97,12.02 190.00,12.07 C190.02,12.13 190.03,12.18 190.02,12.24 C190.02,12.24 190.02,15.50 190.02,15.50 C190.02,15.59 189.99,15.66 189.94,15.73 C189.88,15.79 189.81,15.83 189.73,15.84 C189.73,15.84 186.42,15.84 186.42,15.84 C186.33,15.83 186.25,15.80 186.19,15.73 C186.13,15.67 186.09,15.59 186.08,15.50 C186.08,15.50 186.08,12.24 186.08,12.24 C186.08,12.15 186.11,12.07 186.18,12.00 C186.25,11.93 186.42,11.90 186.42,11.90" fill="none" stroke="rgb(17, 17, 17)" stroke-width="2.50" stroke-opacity="1.00" stroke-linejoin="miter"/>
<path d="M190.36,15.84 C190.36,15.84 193.67,15.84 193.67,15.84 C193.75,15.84 193.83,15.87 193.89,15.92 C193.96,15.98 194.00,16.05 194.01,16.14 C194.01,16.14 194.01,19.43 194.01,19.43 C194.00,19.52 193.96,19.59 193.89,19.65 C193.83,19.70 193.75,19.73 193.67,19.73 C193.67,19.73 190.40,19.73 190.40,19.73 C190.32,19.73 190.24,19.70 190.18,19.65 C190.11,19.59 190.08,19.52 190.06,19.43 C190.06,19.43 190.06,16.13 190.06,16.13 C190.08,16.04 190.11,15.97 190.18,15.91 C190.24,15.86 190.40,15.83 190.40,15.83" fill="none" stroke="rgb(17, 17, 17)" stroke-width="2.50" stroke-opacity="1.00" stroke-linejoin="miter"/>
<path d="M194.30,11.90 C194.30,11.90 197.56,11.90 197.56,11.90 C197.66,11.90 197.74,11.93 197.80,12.00 C197.87,12.07 197.90,12.15 197.90,12.24 C197.90,12.24 197.90,15.50 197.90,15.50 C197.89,15.59 197.86,15.67 197.79,15.73 C197.73,15.80 197.65,15.83 197.56,15.84 C197.56,15.84 194.30,15.84 194.30,15.84 C194.21,15.84 194.13,15.81 194.06,15.74 C193.99,15.68 193.96,15.60 193.96,15.50 C193.96,15.50 193.96,12.24 193.96,12.24 C193.95,12.18 193.96,12.12 193.99,12.06 C194.02,12.00 194.06,11.96 194.12,11.93 C194.18,11.90 194.30,11.90 194.30,11.90" fill="none" stroke="rgb(17, 17, 17)" stroke-width="2.50" stroke-opacity="1.00" stroke-linejoin="miter"/>
<path d="M186.42,4.02 C186.42,4.02 189.73,4.02 189.73,4.02 C189.81,4.03 189.88,4.07 189.94,4.13 C189.99,4.20 190.02,4.27 190.02,4.36 C190.02,4.36 190.02,7.62 190.02,7.62 C190.03,7.68 190.02,7.73 190.00,7.79 C189.97,7.84 189.94,7.88 189.89,7.91 C189.84,7.94 189.78,7.96 189.73,7.96 C189.73,7.96 186.42,7.96 186.42,7.96 C186.33,7.96 186.25,7.93 186.18,7.86 C186.11,7.79 186.08,7.71 186.08,7.62 C186.08,7.62 186.08,4.36 186.08,4.36 C186.09,4.27 186.13,4.19 186.19,4.13 C186.25,4.06 186.42,4.02 186.42,4.02" fill="none" stroke="rgb(17, 17, 17)" stroke-width="2.50" stroke-opacity="1.00" stroke-linejoin="miter"/>
<path d="M194.30,4.02 C194.30,4.02 197.56,4.02 197.56,4.02 C197.65,4.03 197.73,4.06 197.79,4.13 C197.86,4.19 197.89,4.27 197.90,4.36 C197.90,4.36 197.90,7.62 197.90,7.62 C197.90,7.71 197.87,7.79 197.80,7.86 C197.74,7.93 197.66,7.96 197.56,7.96 C197.56,7.96 194.30,7.96 194.30,7.96 C194.24,7.97 194.18,7.96 194.12,7.93 C194.06,7.90 194.02,7.86 193.99,7.80 C193.96,7.74 193.95,7.68 193.96,7.62 C193.96,7.62 193.96,4.36 193.96,4.36 C193.96,4.26 193.99,4.18 194.06,4.12 C194.13,4.05 194.30,4.02 194.30,4.02" fill="none" stroke="rgb(17, 17, 17)" stroke-width="2.50" stroke-opacity="1.00" stroke-linejoin="miter"/>
<path d="M280.67,11.91 C280.68,8.85 279.73,6.13 277.83,3.73 C275.93,1.33 273.48,-0.21 270.50,-0.89 C267.52,-1.58 264.65,-1.26 261.90,0.07 C259.14,1.40 257.10,3.44 255.77,6.19 C254.45,8.95 254.12,11.82 254.81,14.80 C255.49,17.78 257.03,20.22 259.43,22.13 C261.83,24.03 264.55,24.97 267.61,24.96 C271.21,24.95 274.29,23.67 276.83,21.13 C279.38,18.58 280.65,15.51 280.67,11.91 Z" fill="none" stroke="rgb(0, 0, 0)" stroke-width="4.99" stroke-opacity="1.00" stroke-linejoin="round"/>
<path d="M244.26,54.56 C244.25,50.95 242.97,47.88 240.41,45.34 C237.86,42.80 234.78,41.54 231.18,41.55 C227.57,41.56 224.50,42.84 221.96,45.39 C219.42,47.95 218.15,51.03 218.16,54.63 C218.17,58.23 219.45,61.31 222.00,63.85 C224.56,66.39 227.63,67.66 231.24,67.65 C234.84,67.65 237.91,66.37 240.46,63.81 C241.68,62.59 242.62,61.17 243.28,59.56 C243.94,57.96 244.27,56.29 244.26,54.56 Z" fill="none" stroke="rgb(0, 0, 0)" stroke-width="4.99" stroke-opacity="1.00" stroke-linejoin="round"/>
<path d="M295.96,227.55 C308.69,227.97 324.06,230.25 334.32,238.59 C344.57,246.93 362.88,278.75 375.13,298.97 C387.38,319.20 403.90,345.22 403.90,345.22 C410.22,355.00 414.38,351.91 414.38,351.91 C473.71,332.95 477.65,293.39 480.41,259.11 C483.16,224.83 470.45,119.47 460.24,65.74 C450.02,12.00 424.89,-8.53 424.89,-8.53 C420.24,-8.85 415.84,-10.05 411.67,-12.13 C398.98,-18.06 385.94,-23.07 372.55,-27.16 C361.96,-29.91 320.21,-35.93 310.21,-37.79 C300.21,-39.65 297.49,-42.57 297.49,-42.57 C287.95,-42.86 274.56,-43.29 258.50,-43.58 C235.79,-44.05 219.13,-44.05 192.05,-44.08 C192.05,-44.08 137.56,-44.08 137.56,-44.08 C117.05,-43.78 99.88,-43.24 87.47,-42.77 C83.44,-40.60 79.20,-39.01 74.74,-37.99 C64.74,-36.13 23.00,-30.12 12.40,-27.37 C-0.99,-23.28 -14.02,-18.27 -26.71,-12.35 C-30.88,-10.27 -35.29,-9.07 -39.93,-8.75 C-39.93,-8.75 -65.10,11.77 -75.26,65.52 C-85.43,119.26 -98.19,224.62 -95.43,258.89 C-92.68,293.16 -88.61,332.73 -29.41,351.69 C-29.41,351.69 -25.17,354.78 -18.93,345.00 C-18.93,345.00 -2.40,318.98 9.84,298.75 C22.09,278.53 40.44,246.70 50.65,238.37 C60.87,230.04 76.08,227.75 88.80,227.33 C101.51,226.91 192.28,226.86 192.28,226.86 C192.28,226.86 283.12,227.12 295.96,227.55 Z" fill="none" stroke="rgb(0, 0, 0)" stroke-width="7.49" stroke-opacity="1.00" stroke-linejoin="round"/>
<path d="M62.00,61.22 C62.00,71.24 58.46,79.79 51.38,86.87 C44.29,93.95 35.74,97.49 25.73,97.49 C15.71,97.49 7.16,93.95 0.08,86.87 C-7.01,79.79 -10.55,71.24 -10.55,61.22 C-10.55,51.20 -7.01,42.65 0.08,35.57 C7.16,28.49 15.71,24.94 25.73,24.94 C35.74,24.94 44.29,28.49 51.38,35.57 C58.46,42.65 62.00,51.20 62.00,61.22 Z" fill="none" stroke="rgb(0, 0, 0)" stroke-width="3.74" stroke-opacity="1.00" stroke-linejoin="round"/>
<path d="M50.09,61.21 C50.08,67.93 47.70,73.65 42.94,78.40 C38.19,83.14 32.45,85.50 25.74,85.49 C19.02,85.49 13.29,83.11 8.55,78.35 C3.80,73.60 1.43,67.87 1.44,61.15 C1.45,54.44 3.82,48.71 8.57,43.96 C13.32,39.21 19.06,36.84 25.77,36.84 C32.49,36.85 38.22,39.22 42.97,43.97 C45.25,46.26 47.01,48.89 48.25,51.88 C49.48,54.87 50.10,57.98 50.09,61.21 Z" fill="none" stroke="rgb(0, 0, 0)" stroke-width="4.99" stroke-opacity="1.00" stroke-linejoin="round"/>
<path d="M307.66,152.47 C307.65,162.47 304.11,171.01 297.02,178.07 C289.94,185.14 281.40,188.67 271.39,188.66 C261.39,188.65 252.86,185.10 245.79,178.02 C238.72,170.94 235.19,162.40 235.20,152.40 C235.21,142.39 238.75,133.86 245.83,126.79 C252.91,119.72 261.45,116.19 271.46,116.19 C281.46,116.20 290.00,119.74 297.07,126.82 C300.47,130.22 303.08,134.15 304.92,138.59 C306.75,143.03 307.67,147.66 307.66,152.47 Z" fill="none" stroke="rgb(0, 0, 0)" stroke-width="3.74" stroke-opacity="1.00" stroke-linejoin="round"/>
<path d="M295.79,152.47 C295.79,159.20 293.42,164.94 288.66,169.70 C283.90,174.46 278.16,176.84 271.43,176.84 C264.70,176.84 258.95,174.46 254.20,169.70 C249.44,164.94 247.06,159.20 247.06,152.47 C247.06,145.74 249.44,140.00 254.20,135.24 C258.95,130.48 264.70,128.10 271.43,128.10 C278.16,128.10 283.90,130.48 288.66,135.24 C293.42,140.00 295.79,145.74 295.79,152.47 Z" fill="none" stroke="rgb(0, 0, 0)" stroke-width="4.99" stroke-opacity="1.00" stroke-linejoin="round"/>
<path d="M154.17,168.75 C155.65,168.74 156.91,168.21 157.95,167.16 C158.99,166.11 159.51,164.84 159.51,163.37 C159.51,163.37 159.51,142.55 159.51,142.55 C159.51,141.07 158.99,139.81 157.95,138.76 C156.91,137.71 155.65,137.18 154.17,137.17 C154.17,137.17 134.00,137.17 134.00,137.17 C132.53,137.16 131.28,136.63 130.24,135.59 C129.20,134.55 128.67,133.30 128.66,131.83 C128.66,131.83 128.66,111.66 128.66,111.66 C128.65,110.18 128.12,108.92 127.07,107.88 C126.02,106.84 124.76,106.32 123.28,106.32 C123.28,106.32 102.47,106.32 102.47,106.32 C100.99,106.32 99.73,106.84 98.68,107.88 C97.63,108.92 97.10,110.18 97.09,111.66 C97.09,111.66 97.09,131.82 97.09,131.82 C97.14,133.29 96.66,134.56 95.66,135.63 C94.66,136.71 93.43,137.27 91.96,137.33 C91.96,137.33 71.62,137.33 71.62,137.33 C70.14,137.33 68.87,137.85 67.82,138.91 C66.76,139.96 66.24,141.22 66.24,142.71 C66.24,142.71 66.24,163.51 66.24,163.51 C66.24,164.99 66.76,166.26 67.82,167.31 C68.87,168.36 70.14,168.89 71.62,168.89" fill="none" stroke="rgb(4, 0, 0)" stroke-width="4.99" stroke-opacity="1.00" stroke-linejoin="miter"/>
<path d="M71.62,168.89 C71.62,168.89 91.96,168.89 91.96,168.89 C92.92,168.88 93.81,169.12 94.64,169.59 C95.47,170.07 96.12,170.72 96.60,171.55 C97.08,172.38 97.31,173.27 97.30,174.23 C97.30,174.23 97.30,194.36 97.30,194.36 C97.30,195.84 97.83,197.11 98.88,198.16 C99.93,199.21 101.20,199.74 102.68,199.74 C102.68,199.74 123.49,199.74 123.49,199.74 C124.98,199.74 126.25,199.21 127.30,198.16 C128.35,197.11 128.87,195.84 128.87,194.36 C128.87,194.36 128.87,174.24 128.87,174.24 C128.87,172.76 129.39,171.50 130.44,170.46 C131.48,169.42 132.74,168.90 134.21,168.90 C134.21,168.90 154.39,168.90 154.39,168.90" fill="none" stroke="rgb(4, 0, 0)" stroke-width="4.99" stroke-opacity="1.00" stroke-linejoin="miter"/>
<path d="M112.89,140.43 C115.87,140.43 118.53,141.37 120.85,143.23 C123.18,145.09 124.66,147.48 125.31,150.39 C125.96,153.30 125.63,156.09 124.31,158.77 C123.00,161.44 120.99,163.41 118.30,164.68 C115.60,165.94 112.80,166.23 109.90,165.53 C107.01,164.83 104.65,163.30 102.82,160.94 C101.00,158.58 100.12,155.91 100.17,152.93 C100.17,150.67 100.74,148.57 101.88,146.62 C103.02,144.67 104.58,143.14 106.55,142.03 C108.52,140.93 110.63,140.39 112.89,140.43 Z" fill="none" stroke="rgb(4, 0, 0)" stroke-width="4.99" stroke-opacity="1.00" stroke-linejoin="miter"/>
<path d="M341.31,8.28 C341.60,6.59 343.09,2.59 343.98,1.12 C344.90,-0.33 347.81,-3.46 349.19,-4.47 C350.59,-5.46 354.48,-7.24 356.14,-7.65 C357.82,-8.03 362.08,-8.18 363.78,-7.92 C365.47,-7.63 369.47,-6.14 370.94,-5.25 C372.39,-4.33 375.52,-1.42 376.54,-0.04 C377.53,1.36 379.30,5.25 379.71,6.91 C380.09,8.59 380.24,12.85 379.98,14.55 C379.69,16.24 378.20,20.24 377.31,21.71 C376.40,23.16 373.49,26.29 372.10,27.31 C370.70,28.30 366.82,30.07 365.15,30.48 C363.48,30.86 359.21,31.01 357.51,30.75 C355.82,30.46 351.82,28.97 350.35,28.08 C348.90,27.17 345.77,24.26 344.76,22.87 C343.77,21.47 341.99,17.59 341.58,15.92 C341.20,14.25 341.05,9.98 341.31,8.28 Z" fill="none" stroke="rgb(52, 44, 43)" stroke-width="7.48" stroke-opacity="1.00" stroke-linejoin="miter"/>
<path d="M382.47,49.08 C382.76,47.39 384.26,43.39 385.14,41.92 C386.06,40.46 388.97,37.34 390.35,36.32 C391.75,35.33 395.64,33.56 397.31,33.15 C398.98,32.77 403.25,32.62 404.94,32.88 C406.64,33.17 410.64,34.66 412.11,35.55 C413.56,36.46 416.68,39.37 417.70,40.76 C418.69,42.16 420.46,46.04 420.87,47.71 C421.25,49.38 421.40,53.65 421.15,55.35 C420.86,57.04 419.36,61.04 418.48,62.51 C417.56,63.96 414.65,67.08 413.27,68.10 C411.86,69.09 407.98,70.87 406.31,71.28 C404.64,71.66 400.37,71.81 398.67,71.55 C396.98,71.26 392.98,69.77 391.51,68.88 C390.06,67.96 386.94,65.05 385.92,63.67 C384.93,62.27 383.16,58.38 382.74,56.72 C382.37,55.04 382.21,50.77 382.47,49.08 Z" fill="none" stroke="rgb(52, 44, 43)" stroke-width="7.48" stroke-opacity="1.00" stroke-linejoin="miter"/>
<path d="M300.38,49.36 C300.68,47.67 302.17,43.67 303.06,42.20 C303.97,40.75 306.88,37.63 308.26,36.61 C309.67,35.62 313.55,33.85 315.22,33.43 C316.89,33.06 321.16,32.90 322.86,33.16 C324.55,33.45 328.55,34.95 330.02,35.83 C331.47,36.75 334.59,39.66 335.61,41.04 C336.60,42.44 338.38,46.33 338.79,48.00 C339.16,49.67 339.32,53.94 339.06,55.63 C338.77,57.33 337.27,61.33 336.39,62.80 C335.47,64.25 332.56,67.37 331.18,68.39 C329.78,69.38 325.89,71.15 324.23,71.56 C322.55,71.94 318.28,72.09 316.59,71.84 C314.89,71.55 310.89,70.05 309.42,69.17 C307.97,68.25 304.85,65.34 303.83,63.96 C302.84,62.55 301.07,58.67 300.66,57.00 C300.28,55.33 300.13,51.06 300.38,49.36 Z" fill="none" stroke="rgb(52, 44, 43)" stroke-width="7.48" stroke-opacity="1.00" stroke-linejoin="miter"/>
<path d="M192.04,139.58 C192.84,139.57 193.52,139.29 194.08,138.73 C194.64,138.16 194.92,137.48 194.92,136.68 C194.92,135.89 194.64,135.21 194.07,134.64 C193.51,134.08 192.83,133.80 192.03,133.80 C191.23,133.80 190.55,134.09 189.99,134.65 C189.43,135.22 189.15,135.90 189.15,136.69 C189.15,137.49 189.43,138.17 190.00,138.73 C190.27,139.00 190.58,139.21 190.94,139.36 C191.29,139.50 192.04,139.58 192.04,139.58 Z" fill="none" stroke="rgb(17, 17, 17)" stroke-width="3.74" stroke-opacity="1.00" stroke-linejoin="miter"/>
<path d="M192.04,150.48 C192.84,150.48 193.52,150.20 194.08,149.63 C194.64,149.07 194.92,148.38 194.92,147.59 C194.92,146.79 194.64,146.11 194.07,145.55 C193.51,144.99 192.83,144.71 192.03,144.71 C191.23,144.71 190.55,144.99 189.99,145.56 C189.43,146.12 189.15,146.80 189.15,147.60 C189.15,148.39 189.43,149.07 190.00,149.64 C190.27,149.91 190.58,150.12 190.94,150.26 C191.29,150.41 192.04,150.48 192.04,150.48 Z" fill="none" stroke="rgb(17, 17, 17)" stroke-width="3.74" stroke-opacity="1.00" stroke-linejoin="miter"/>
<path d="M192.04,161.39 C192.84,161.39 193.52,161.11 194.08,160.54 C194.65,159.98 194.93,159.30 194.93,158.50 C194.92,157.70 194.64,157.02 194.08,156.46 C193.51,155.90 192.83,155.62 192.04,155.62 C191.24,155.62 190.56,155.90 190.00,156.46 C189.43,157.03 189.15,157.71 189.15,158.51 C189.15,159.30 189.43,159.98 190.00,160.55 C190.27,160.82 190.58,161.03 190.94,161.17 C191.29,161.32 192.04,161.39 192.04,161.39 Z" fill="none" stroke="rgb(17, 17, 17)" stroke-width="3.74" stroke-opacity="1.00" stroke-linejoin="miter"/>
<path d="M187.03,91.97 C187.03,91.97 197.01,91.97 197.01,91.97 C200.51,91.95 203.51,93.15 206.03,95.57 C208.55,97.99 209.87,100.95 209.99,104.44 C209.87,107.93 208.55,110.89 206.03,113.31 C203.51,115.73 200.51,116.94 197.01,116.92 C197.01,116.92 187.03,116.92 187.03,116.92 C183.54,116.94 180.53,115.73 178.01,113.31 C175.50,110.89 174.18,107.93 174.06,104.44 C174.18,100.95 175.50,97.99 178.01,95.57 C180.53,93.15 183.54,91.95 187.03,91.97 Z" fill="none" stroke="rgb(17, 17, 17)" stroke-width="4.99" stroke-opacity="1.00" stroke-linejoin="miter"/>
<path d="M341.55,90.18 C341.84,88.48 343.33,84.48 344.22,83.01 C345.13,81.56 348.04,78.44 349.43,77.42 C350.83,76.43 354.71,74.66 356.38,74.25 C358.05,73.87 362.32,73.71 364.02,73.97 C365.71,74.26 369.71,75.76 371.18,76.64 C372.63,77.56 375.76,80.47 376.77,81.85 C377.76,83.26 379.54,87.14 379.95,88.81 C380.33,90.48 380.48,94.75 380.22,96.44 C379.93,98.14 378.44,102.14 377.55,103.61 C376.63,105.06 373.72,108.18 372.34,109.20 C370.94,110.19 367.05,111.96 365.39,112.38 C363.71,112.75 359.45,112.91 357.75,112.65 C356.06,112.36 352.06,110.86 350.59,109.98 C349.14,109.06 346.01,106.15 344.99,104.77 C344.00,103.36 342.23,99.48 341.82,97.81 C341.44,96.14 341.29,91.87 341.55,90.18 Z" fill="none" stroke="rgb(52, 44, 43)" stroke-width="7.48" stroke-opacity="1.00" stroke-linejoin="miter"/>
</g>
</svg>
