<svg xmlns="http://www.w3.org/2000/svg" width="400" height="300" viewBox="0 0 400 300">
  <g id="组_3" data-name="组 3" transform="translate(-599 -292)">
    <g id="ultimate-2c-wireless" transform="translate(-314 -29)">
      <rect id="矩形_1" data-name="矩形 1" width="400" height="300" transform="translate(913 321)" fill="#fff"/>
    </g>
    <g id="组_2" data-name="组 2">
      <path id="路径_134" data-name="路径 134" d="M558.372,257.515a11.038,11.038,0,0,1,.408-4.229c.611-.985,7.252-5.384,10.768-7.218s7.048-3.584,16.984-5.2a49.255,49.255,0,0,1,18.682.747,3.636,3.636,0,0,1,1.308.883c.594.645,1.495,1.783,1.495,1.783" transform="translate(147.866 95.69)" fill="none" stroke="#000" stroke-linejoin="bevel" stroke-width="3"/>
      <path id="路径_135" data-name="路径 135" d="M687.25,257.513a11.3,11.3,0,0,0-.391-4.229c-.628-.985-7.252-5.384-10.768-7.218s-7.065-3.584-16.984-5.2a49.441,49.441,0,0,0-18.682.747,3.652,3.652,0,0,0-1.291.883c-.594.645-1.495,1.783-1.495,1.783" transform="translate(203.264 95.691)" fill="none" stroke="#000" stroke-linejoin="bevel" stroke-width="3"/>
      <path id="路径_136" data-name="路径 136" d="M610.816,267.588a5.231,5.231,0,1,0-1.526,3.71A5.231,5.231,0,0,0,610.816,267.588Z" transform="translate(177.199 111.018)" fill="none" stroke="#000" stroke-linejoin="bevel" stroke-width="2"/>
      <path id="路径_137" data-name="路径 137" d="M614.4,265.954a1.274,1.274,0,1,0-1.257,1.274A1.274,1.274,0,0,0,614.4,265.954Z" transform="translate(185.252 112.65)" fill="none" stroke="#000" stroke-linejoin="bevel" stroke-width="1.5"/>
      <path id="路径_138" data-name="路径 138" d="M602.242,257.481a5.231,5.231,0,1,0-5.231,5.231,5.231,5.231,0,0,0,5.231-5.231Z" transform="translate(171.235 104.029)" fill="none" stroke="#000" stroke-linejoin="bevel" stroke-width="2"/>
      <path id="路径_139" data-name="路径 139" d="M620.679,257.677a5.689,5.689,0,1,0-5.673,5.673,5.689,5.689,0,0,0,5.673-5.673Z" transform="translate(183.471 103.833)" fill="none" stroke="#000" stroke-linejoin="bevel" stroke-width="1"/>
      <path id="路径_140" data-name="路径 140" d="M623.553,258.522a7.762,7.762,0,1,0-7.745,7.762,7.762,7.762,0,0,0,7.745-7.762Z" transform="translate(182.584 102.988)" fill="none" stroke="#000" stroke-linejoin="bevel" stroke-width="1"/>
      <path id="路径_141" data-name="路径 141" d="M612.269,254.4h1.325a.153.153,0,0,1,.136.136v1.308a.136.136,0,0,1-.136.136h-1.308a.136.136,0,0,1-.136-.136v-1.308a.153.153,0,0,1,.136-.136" transform="translate(185.462 105.53)" fill="#111"/>
      <path id="路径_142" data-name="路径 142" d="M610.409,254.4h1.325a.136.136,0,0,1,.119.136v1.308a.119.119,0,0,1-.119.136h-1.325a.119.119,0,0,1-.119-.136v-1.308a.136.136,0,0,1,.119-.136" transform="translate(184.162 105.53)" fill="#111"/>
      <path id="路径_143" data-name="路径 143" d="M614.119,254.4h1.325a.153.153,0,0,1,.136.136v1.308a.136.136,0,0,1-.136.136h-1.325a.119.119,0,0,1-.119-.136v-1.308a.136.136,0,0,1,.119-.136" transform="translate(186.753 105.53)" fill="#111"/>
      <path id="路径_144" data-name="路径 144" d="M611.346,255.33h1.325a.119.119,0,0,1,.119.136v1.308a.136.136,0,0,1-.119.136h-1.325a.153.153,0,0,1-.136-.136v-1.308a.136.136,0,0,1,.136-.136" transform="translate(184.805 106.18)" fill="#111"/>
      <path id="路径_145" data-name="路径 145" d="M612.269,256.26h1.325a.136.136,0,0,1,.136.119V257.7a.136.136,0,0,1-.136.119h-1.308a.136.136,0,0,1-.136-.119v-1.325a.136.136,0,0,1,.136-.119" transform="translate(185.462 106.829)" fill="#111"/>
      <path id="路径_146" data-name="路径 146" d="M613.206,255.331h1.308a.136.136,0,0,1,.136.136v1.308a.153.153,0,0,1-.136.136h-1.308a.136.136,0,0,1-.136-.136v-1.308a.119.119,0,0,1,.136-.136" transform="translate(186.104 106.179)" fill="#111"/>
      <path id="路径_147" data-name="路径 147" d="M611.346,253.47h1.325a.136.136,0,0,1,.119.136v1.308a.119.119,0,0,1-.119.136h-1.325a.136.136,0,0,1-.136-.136v-1.308a.153.153,0,0,1,.136-.136" transform="translate(184.805 104.881)" fill="#111"/>
      <path id="路径_148" data-name="路径 148" d="M613.206,253.47h1.308a.153.153,0,0,1,.136.136v1.308a.136.136,0,0,1-.136.136h-1.308a.119.119,0,0,1-.136-.136v-1.308a.136.136,0,0,1,.136-.136" transform="translate(186.104 104.881)" fill="#111"/>
      <path id="路径_149" data-name="路径 149" d="M637.846,257.5a5.248,5.248,0,1,0-5.231,5.231,5.248,5.248,0,0,0,5.231-5.231Z" transform="translate(196.077 104.015)" fill="none" stroke="#000" stroke-linejoin="bevel" stroke-width="2"/>
      <path id="路径_150" data-name="路径 150" d="M629.242,267.574a5.231,5.231,0,1,0-1.526,3.71,5.231,5.231,0,0,0,1.526-3.71Z" transform="translate(190.092 111.032)" fill="none" stroke="#000" stroke-linejoin="bevel" stroke-width="2"/>
      <path id="路径_151" data-name="路径 151" d="M701.706,350.982c5.1.17,11.26,1.085,15.371,4.426s11.447,16.094,16.356,24.2,11.532,18.536,11.532,18.536c2.531,3.918,4.2,2.68,4.2,2.68,23.777-7.6,25.357-23.455,26.461-37.192s-3.991-55.966-8.084-77.5-14.165-29.764-14.165-29.764a14.011,14.011,0,0,1-5.3-1.442A119.913,119.913,0,0,0,732.4,248.9c-4.246-1.1-20.975-3.511-24.984-4.257s-5.1-1.916-5.1-1.916c-3.821-.119-9.188-.288-15.625-.407-9.1-.187-15.778-.187-26.631-.2H638.22c-8.22.119-15.1.339-20.075.526a20.265,20.265,0,0,1-5.1,1.916c-4.008.746-20.737,3.154-24.983,4.257a119.9,119.9,0,0,0-15.676,6.02,14.012,14.012,0,0,1-5.3,1.442S557,264.506,552.927,286.044s-9.188,63.767-8.084,77.5,2.734,29.594,26.461,37.192c0,0,1.7,1.238,4.2-2.68,0,0,6.624-10.43,11.532-18.536s12.262-20.86,16.356-24.2,10.19-4.257,15.286-4.426,41.475-.186,41.475-.186S696.56,350.812,701.706,350.982Z" transform="translate(138.348 96.954)" fill="none" stroke="#000" stroke-linejoin="bevel" stroke-width="3"/>
      <path id="路径_152" data-name="路径 152" d="M593.887,272.978a14.538,14.538,0,1,1-14.538-14.538A14.538,14.538,0,0,1,593.887,272.978Z" transform="translate(152.4 108.298)" fill="none" stroke="#000" stroke-linejoin="bevel" stroke-width="1.5"/>
      <path id="路径_153" data-name="路径 153" d="M587.152,271.016a9.749,9.749,0,1,1-2.855-6.91A9.749,9.749,0,0,1,587.152,271.016Z" transform="translate(154.362 110.257)" fill="none" stroke="#000" stroke-linejoin="bevel" stroke-width="2"/>
      <path id="路径_154" data-name="路径 154" d="M651.857,294.548a14.521,14.521,0,1,1-4.247-10.279,14.521,14.521,0,0,1,4.247,10.279Z" transform="translate(192.886 123.299)" fill="none" stroke="#000" stroke-linejoin="bevel" stroke-width="1.5"/>
      <path id="路径_155" data-name="路径 155" d="M645.131,292.586a9.766,9.766,0,1,1-9.766-9.766A9.766,9.766,0,0,1,645.131,292.586Z" transform="translate(194.855 125.262)" fill="none" stroke="#000" stroke-linejoin="bevel" stroke-width="2"/>
      <path id="路径_156" data-name="路径 156" d="M618.172,302.7a2.157,2.157,0,0,0,2.14-2.157V292.2a2.157,2.157,0,0,0-2.14-2.157h-8.084a2.157,2.157,0,0,1-2.14-2.14V279.82a2.157,2.157,0,0,0-2.157-2.14h-8.339a2.157,2.157,0,0,0-2.157,2.14v8.08a2.14,2.14,0,0,1-2.055,2.208h-8.152a2.157,2.157,0,0,0-2.157,2.157V300.6a2.157,2.157,0,0,0,2.157,2.157m0,0h8.152a2.123,2.123,0,0,1,2.14,2.14v8.067a2.157,2.157,0,0,0,2.157,2.157h8.339a2.157,2.157,0,0,0,2.157-2.157V304.9a2.14,2.14,0,0,1,2.14-2.14h8.085" transform="translate(165.055 121.671)" fill="none" stroke="#040000" stroke-miterlimit="22.93" stroke-width="2"/>
      <path id="路径_157" data-name="路径 157" d="M596.036,285.73a5.1,5.1,0,1,1-5.1,5.01,5.01,5.01,0,0,1,5.1-5.01Z" transform="translate(170.648 127.293)" fill="none" stroke="#040000" stroke-miterlimit="22.93" stroke-width="2"/>
      <circle id="椭圆_8" data-name="椭圆 8" cx="7.852" cy="7.852" r="7.852" transform="matrix(0.16, -0.987, 0.987, 0.16, 856.971, 367.81)" fill="none" stroke="#342c2b" stroke-miterlimit="22.93" stroke-width="3"/>
      <circle id="椭圆_9" data-name="椭圆 9" cx="7.852" cy="7.852" r="7.852" transform="matrix(0.16, -0.987, 0.987, 0.16, 873.468, 384.16)" fill="none" stroke="#342c2b" stroke-miterlimit="22.93" stroke-width="3"/>
      <circle id="椭圆_10" data-name="椭圆 10" cx="7.852" cy="7.852" r="7.852" transform="matrix(0.16, -0.987, 0.987, 0.16, 840.569, 384.275)" fill="none" stroke="#342c2b" stroke-miterlimit="22.93" stroke-width="3"/>
      <path id="路径_317" data-name="路径 317" d="M1046.91,207.377a1.157,1.157,0,1,0-.82-.338,1.157,1.157,0,0,0,.82.338Z" transform="translate(-246.902 204.902)" fill="none" stroke="#111" stroke-miterlimit="22.926" stroke-width="1.5"/>
      <path id="路径_318" data-name="路径 318" d="M1046.91,209.988a1.157,1.157,0,1,0-.82-.338,1.157,1.157,0,0,0,.82.338Z" transform="translate(-246.902 206.661)" fill="none" stroke="#111" stroke-miterlimit="22.926" stroke-width="1.5"/>
      <path id="路径_319" data-name="路径 319" d="M1046.91,212.6a1.157,1.157,0,1,0-.82-.339A1.157,1.157,0,0,0,1046.91,212.6Z" transform="translate(-246.902 208.422)" fill="none" stroke="#111" stroke-miterlimit="22.926" stroke-width="1.5"/>
      <path id="路径_1" data-name="路径 1" d="M5,0H9a5.177,5.177,0,0,1,5.2,5A5.177,5.177,0,0,1,9,10H5A5.177,5.177,0,0,1-.2,5,5.177,5.177,0,0,1,5,0Z" transform="translate(793 394)" fill="#fff" stroke="#111" stroke-width="2"/>
      <circle id="椭圆_11" data-name="椭圆 11" cx="7.852" cy="7.852" r="7.852" transform="matrix(0.16, -0.987, 0.987, 0.16, 857.066, 400.631)" fill="none" stroke="#342c2b" stroke-miterlimit="22.93" stroke-width="3"/>
    </g>
  </g>
</svg>
